<svg width="24" height="24" viewBox="0 0 24 24" fill="none" xmlns="http://www.w3.org/2000/svg">
<path d="M19.4588 5.60501C20.1229 6.27649 20.6025 7.10788 20.8513 8.01876C21.0565 8.87227 21.0252 9.76565 20.7606 10.6028C20.4948 11.4441 20.0037 12.1965 19.3405 12.7783L19.3183 12.7978L19.2973 12.8185L12.03 19.9959L12.0297 19.9956L4.69975 12.8156L4.68013 12.7964L4.65949 12.7783C3.9963 12.1965 3.50514 11.4441 3.23933 10.6028C2.9748 9.76565 2.9435 8.87228 3.14866 8.01877C3.39749 7.10788 3.87709 6.27649 4.5412 5.60501C5.20741 4.93139 6.0366 4.44166 6.9481 4.18342C7.70531 3.97651 8.50061 3.95078 9.26964 4.10835C10.0399 4.26617 10.7622 4.60345 11.3777 5.09278L12 5.58755L12.6223 5.09278C13.2378 4.60345 13.96 4.26617 14.7303 4.10835C15.4994 3.95078 16.2947 3.97651 17.0519 4.18342C17.9634 4.44167 18.7926 4.9314 19.4588 5.60501Z" fill="#BE2D2D" stroke="#151414" stroke-width="2"/>
</svg>
